<svg xmlns="http://www.w3.org/2000/svg" viewBox="0 0 1200 600">
  <defs>
    <linearGradient id="bgGradient" x1="0%" y1="0%" x2="100%" y2="100%">
      <stop offset="0%" stop-color="#0A1220"/>
      <stop offset="100%" stop-color="#172032"/>
    </linearGradient>
    <radialGradient id="glow1" cx="30%" cy="30%" r="50%" fx="30%" fy="30%">
      <stop offset="0%" stop-color="#3A5CF7" stop-opacity="0.7"/>
      <stop offset="100%" stop-color="#3A5CF7" stop-opacity="0"/>
    </radialGradient>
    <radialGradient id="glow2" cx="70%" cy="70%" r="50%" fx="70%" fy="70%">
      <stop offset="0%" stop-color="#E4429F" stop-opacity="0.5"/>
      <stop offset="100%" stop-color="#E4429F" stop-opacity="0"/>
    </radialGradient>
  </defs>
  
  <!-- Background -->
  <rect width="100%" height="100%" fill="url(#bgGradient)"/>
  
  <!-- Glows -->
  <rect width="100%" height="100%" fill="url(#glow1)"/>
  <rect width="100%" height="100%" fill="url(#glow2)"/>
  
  <!-- Geometric elements -->
  <g fill="#FFFFFF" fill-opacity="0.12">
    <circle cx="200" cy="100" r="80"/>
    <circle cx="1000" cy="500" r="100"/>
  </g>
  
  <!-- Particle effects -->
  <g fill="#FFFFFF">
    <circle cx="100" cy="200" r="1.8" opacity="0.8"/>
    <circle cx="300" cy="400" r="2.2" opacity="0.7"/>
    <circle cx="500" cy="100" r="1.8" opacity="0.9"/>
    <circle cx="700" cy="300" r="1.6" opacity="0.8"/>
    <circle cx="900" cy="200" r="2" opacity="0.7"/>
    <circle cx="1100" cy="400" r="1.8" opacity="0.8"/>
    <circle cx="200" cy="500" r="2.2" opacity="0.9"/>
    <circle cx="400" cy="300" r="1.8" opacity="0.9"/>
    <circle cx="600" cy="500" r="1.6" opacity="0.8"/>
    <circle cx="800" cy="100" r="2" opacity="0.9"/>
    <circle cx="1000" cy="300" r="1.8" opacity="0.7"/>
    <circle cx="1100" cy="150" r="2.2" opacity="0.8"/>
  </g>
  
  <!-- Mesh lines -->
  <g stroke="#FFFFFF" stroke-opacity="0.12" stroke-width="1">
    <path d="M 0 0 L 1200 600"/>
    <path d="M 0 600 L 1200 0"/>
    <path d="M 600 0 L 600 600"/>
    <path d="M 0 300 L 1200 300"/>
  </g>
</svg>
